<svg width="14" height="12" viewBox="0 0 14 12" fill="none" xmlns="http://www.w3.org/2000/svg">
<path d="M14 3.875C14 8.25 7.51312 11.7913 7.23687 11.9375C7.16406 11.9767 7.08268 11.9972 7 11.9972C6.91732 11.9972 6.83594 11.9767 6.76312 11.9375C6.48688 11.7913 0 8.25 0 3.875C0.00115796 2.84764 0.409788 1.86269 1.13624 1.13624C1.86269 0.409788 2.84764 0.00115796 3.875 0C5.16563 0 6.29562 0.555 7 1.49312C7.70438 0.555 8.83438 0 10.125 0C11.1524 0.00115796 12.1373 0.409788 12.8638 1.13624C13.5902 1.86269 13.9988 2.84764 14 3.875Z" fill="#6213b0"/>
</svg>
